# xmcd CD database file
#
# Track frame offsets:
#	150
#	28822
#	49579
#	75356
#	102885
#	124719
#	146856
#	178038
#	193629
#	205056
#	224223
#	246450
#
# Disc length: 3647 seconds
#
# Revision: 3
# Processed by: cddbd v1.5.2PL0 Copyright (c) Steve Scherf et al.
# Submitted via: CDex 1.51
#
DISCID=b30e3d0c
DTITLE=VANCE KELLY - Chicago Blues Session Volume 31(Call Me)
DYEAR=1994
DGENRE=Chicago Blues
TTITLE0=Doing My Own Thang
TTITLE1=Wall To Wall
TTITLE2=Hurt So Bad
TTITLE3=Woman In Every Town
TTITLE4=That's The Way Love Is
TTITLE5=Somebody As Good As You
TTITLE6=In Of The Rainbow
TTITLE7=Use Me Right
TTITLE8=She Ain't Good Looking
TTITLE9=Drivein Wheel
TTITLE10=Call Me
TTITLE11=Dog On A Chain
EXTD=YEAR: 1994
EXTT0=
EXTT1=
EXTT2=
EXTT3=
EXTT4=
EXTT5=
EXTT6=
EXTT7=
EXTT8=
EXTT9=
EXTT10=
EXTT11=
PLAYORDER=
